# xmcd CD database file
#
# Track frame offsets:
#	150
#	21085
#	40366
#	69652
#	90809
#	107194
#	135209
#	150260
#	169998
#	184700
#	204250
#	224690
#	244738
#
# Disc length: 3620 seconds
#
# Revision: 0
# Processed by: cddbd v1.5PL3 Copyright (c) Steve Scherf et al.
# Submitted via: CDex 1.40Release
#
DISCID=a70e220d
DTITLE=Paint It Blue - Songs Of Stones
DYEAR=1900
DGENRE=Blues
TTITLE0=Luther Alison - You Can´t  Always Get What You Want
TTITLE1=Johnny Coperland - Tumblin´ Dice
TTITLE2=Otis Clay - Wild Horses
TTITLE3=Taj Mahal and James Cotton - Honky Tonk Woman
TTITLE4=Alvin ´ Youngblood´ Hart - Sway
TTITLE5=Clarance ´Gatemouth´ Brown and Larry McCray - Ventilator Blues
TTITLE6=Wendell Holmes - Beast Of Burdon
TTITLE7=Lucky Peterson - Under My Thumb
TTITLE8=Bobby Wormack - It´s All Over Now
TTITLE9=Larry McCray - Midnight Rambler
TTITLE10=Joe Louis Walker - Heart Of Stone
TTITLE11=Alvin´ Youngblood´ Hart - Moonlight Mile
TTITLE12=Junior Wells - (I Can´t Get No) Satisfaction
EXTD=ID3G: 0
EXTT0=
EXTT1=
EXTT2=
EXTT3=
EXTT4=
EXTT5=
EXTT6=
EXTT7=
EXTT8=
EXTT9=
EXTT10=
EXTT11=
EXTT12=
PLAYORDER=
